<svg id="visual" viewBox="0 0 430 932" width="430" height="932" xmlns="http://www.w3.org/2000/svg" xmlns:xlink="http://www.w3.org/1999/xlink" version="1.1"><rect x="0" y="0" width="430" height="932" fill="#E2E2E2"></rect><path d="M0 383L10.2 383.5C20.3 384 40.7 385 61.2 372.7C81.7 360.3 102.3 334.7 122.8 332.2C143.3 329.7 163.7 350.3 184.2 362C204.7 373.7 225.3 376.3 245.8 366.5C266.3 356.7 286.7 334.3 307.2 315C327.7 295.7 348.3 279.3 368.8 267.2C389.3 255 409.7 247 419.8 243L430 239L430 0L419.8 0C409.7 0 389.3 0 368.8 0C348.3 0 327.7 0 307.2 0C286.7 0 266.3 0 245.8 0C225.3 0 204.7 0 184.2 0C163.7 0 143.3 0 122.8 0C102.3 0 81.7 0 61.2 0C40.7 0 20.3 0 10.2 0L0 0Z" fill="#007ea7"></path><path d="M0 242L10.2 251.2C20.3 260.3 40.7 278.7 61.2 289.2C81.7 299.7 102.3 302.3 122.8 285.8C143.3 269.3 163.7 233.7 184.2 224.8C204.7 216 225.3 234 245.8 243.2C266.3 252.3 286.7 252.7 307.2 247.3C327.7 242 348.3 231 368.8 221C389.3 211 409.7 202 419.8 197.5L430 193L430 0L419.8 0C409.7 0 389.3 0 368.8 0C348.3 0 327.7 0 307.2 0C286.7 0 266.3 0 245.8 0C225.3 0 204.7 0 184.2 0C163.7 0 143.3 0 122.8 0C102.3 0 81.7 0 61.2 0C40.7 0 20.3 0 10.2 0L0 0Z" fill="#136ca6"></path><path d="M0 211L10.2 210.7C20.3 210.3 40.7 209.7 61.2 214.5C81.7 219.3 102.3 229.7 122.8 230.3C143.3 231 163.7 222 184.2 216.7C204.7 211.3 225.3 209.7 245.8 201.3C266.3 193 286.7 178 307.2 180.3C327.7 182.7 348.3 202.3 368.8 206.2C389.3 210 409.7 198 419.8 192L430 186L430 0L419.8 0C409.7 0 389.3 0 368.8 0C348.3 0 327.7 0 307.2 0C286.7 0 266.3 0 245.8 0C225.3 0 204.7 0 184.2 0C163.7 0 143.3 0 122.8 0C102.3 0 81.7 0 61.2 0C40.7 0 20.3 0 10.2 0L0 0Z" fill="#3c569d"></path><path d="M0 104L10.2 103C20.3 102 40.7 100 61.2 103.5C81.7 107 102.3 116 122.8 124.5C143.3 133 163.7 141 184.2 137.3C204.7 133.7 225.3 118.3 245.8 113.5C266.3 108.7 286.7 114.3 307.2 119.7C327.7 125 348.3 130 368.8 135.5C389.3 141 409.7 147 419.8 150L430 153L430 0L419.8 0C409.7 0 389.3 0 368.8 0C348.3 0 327.7 0 307.2 0C286.7 0 266.3 0 245.8 0C225.3 0 204.7 0 184.2 0C163.7 0 143.3 0 122.8 0C102.3 0 81.7 0 61.2 0C40.7 0 20.3 0 10.2 0L0 0Z" fill="#5a3c88"></path><path d="M0 67L10.2 72.2C20.3 77.3 40.7 87.7 61.2 91.3C81.7 95 102.3 92 122.8 84C143.3 76 163.7 63 184.2 56.2C204.7 49.3 225.3 48.7 245.8 49.2C266.3 49.7 286.7 51.3 307.2 52.7C327.7 54 348.3 55 368.8 52.7C389.3 50.3 409.7 44.7 419.8 41.8L430 39L430 0L419.8 0C409.7 0 389.3 0 368.8 0C348.3 0 327.7 0 307.2 0C286.7 0 266.3 0 245.8 0C225.3 0 204.7 0 184.2 0C163.7 0 143.3 0 122.8 0C102.3 0 81.7 0 61.2 0C40.7 0 20.3 0 10.2 0L0 0Z" fill="#6e1769"></path></svg>
